# xmcd CD database file
#
# Track frame offsets:
#	150
#	22530
#	44185
#	68025
#
# Disc length: 1202 seconds
#
# Revision: 0
# Processed by: cddbd v1.5.1PL0 Copyright (c) Steve Scherf et al.
# Submitted via: CDex 1.51
#
DISCID=2b04b004
DTITLE=藤木直人 - パーフェクトワールド
DYEAR=2000
DGENRE=J-Pop
TTITLE0=パーフェクトワールド
TTITLE1=君を見つめてた 月が照らしてた
TTITLE2=distance
TTITLE3=パーフェクトワールド (instrumental)
EXTD=YEAR: 2000
EXTT0=
EXTT1=
EXTT2=
EXTT3=
PLAYORDER=
